/* XPM */
static char *_a592f70b38c4ec3f2aef906834ea994[] = {
/* columns rows colors chars-per-pixel */
"32 32 3 1 ",
"  c #29303A",
". c #E87624",
"X c None",
/* pixels */
"XXXXXXXXXXXXXXXXXXXXXXXXXXXXXXXX",
"XXXXXXXXXXXXXXXXXXXXXXXXXXXXXXXX",
"XXXXXXXXXXXXXXXXXXXXXXXXXXXXXXXX",
"XXXXXXXXXXXXXXXXXXXXXXXXXXXXXXXX",
"XXXXX                     XXXXX ",
"XXXX                       XX  X",
"XXXX                          XX",
"XXXX                         XXX",
"XXXX                        XXXX",
"XXXX                       XXXXX",
"XXXX                      XXXXXX",
"XXXX                     XXXXXXX",
"XXXX      XX            XXXXXXXX",
"XXXX     XXXXX         XXX..XXXX",
"XXXX     X..XX        XXX...XXXX",
"XXXX    XX..XX       XXX....XXXX",
"XXXX    XXXXXXX     XXX.....XXXX",
"XXXX   XXX...XXX   XXX......XXXX",
"XXXX  XXX.....XXXXXXX.......XXXX",
"XXXX XXX.......XX..XX.......XXXX",
"XXXXXXX........XX..X........XXXX",
"XXXXXX.........XXXXX........XXXX",
"XXXXX...........XXX.........XXXX",
"XXXX........................XXXX",
"XXX.........................XXXX",
"XX..........................XXXX",
"X..X.......................XXXXX",
"XXXXX.....................XXXXXX",
"XXXXXXXXXXXXXXXXXXXXXXXXXXXXXXXX",
"XXXXXXXXXXXXXXXXXXXXXXXXXXXXXXXX",
"XXXXXXXXXXXXXXXXXXXXXXXXXXXXXXXX",
"XXXXXXXXXXXXXXXXXXXXXXXXXXXXXXXX"
};
