/* XPM */
static char *_b684121b7ca46d3d54b8eb12373c338[] = {
/* columns rows colors chars-per-pixel */
"64 64 3 1 ",
"  c #29303A",
". c #E87624",
"X c None",
/* pixels */
"XXXXXXXXXXXXXXXXXXXXXXXXXXXXXXXXXXXXXXXXXXXXXXXXXXXXXXXXXXXXXXXX",
"XXXXXXXXXXXXXXXXXXXXXXXXXXXXXXXXXXXXXXXXXXXXXXXXXXXXXXXXXXXXXXXX",
"XXXXXXXXXXXXXXXXXXXXXXXXXXXXXXXXXXXXXXXXXXXXXXXXXXXXXXXXXXXXXXXX",
"XXXXXXXXXXXXXXXXXXXXXXXXXXXXXXXXXXXXXXXXXXXXXXXXXXXXXXXXXXXXXXXX",
"XXXXXXXXXXXXXXXXXXXXXXXXXXXXXXXXXXXXXXXXXXXXXXXXXXXXXXXXXXXXXXXX",
"XXXXXXXXXXXXXXXXXXXXXXXXXXXXXXXXXXXXXXXXXXXXXXXXXXXXXXXXXXXXXXXX",
"XXXXXXXXXXXXXXXXXXXXXXXXXXXXXXXXXXXXXXXXXXXXXXXXXXXXXXXXXXXXXXXX",
"XXXXXXXXXXXXXXXXXXXXXXXXXXXXXXXXXXXXXXXXXXXXXXXXXXXXXXXXXXXXXXXX",
"XXXXXXXXXXX                                        XXXXXXXXXXXXX",
"XXXXXXXXX                                            XXXXXXXXX  ",
"XXXXXXXX                                              XXXXX    X",
"XXXXXXXX                                               XX     XX",
"XXXXXXXX                                                     XXX",
"XXXXXXXX                                                    XXXX",
"XXXXXXXX                                                   XXXXX",
"XXXXXXXX                                                  XXXXXX",
"XXXXXXXX                                                 XXXXXXX",
"XXXXXXXX                                                XXXXXXXX",
"XXXXXXXX                                               XXXXXXXXX",
"XXXXXXXX                                              XXXXXXXXXX",
"XXXXXXXX                                             XXXXXXXXXXX",
"XXXXXXXX                                            XXXXXXXXXXXX",
"XXXXXXXX                                           XXXXXXXXXXXXX",
"XXXXXXXX                                          XXXXXXXXXXXXXX",
"XXXXXXXX             XXX                         XXXXXXXXXXXXXXX",
"XXXXXXXX           XXXXXXX                      XXXXXXXXXXXXXXXX",
"XXXXXXXX          XXXXXXXXX                    XXXXXX..XXXXXXXXX",
"XXXXXXXX         XXXXX.XXXXX                  XXXXXX...XXXXXXXXX",
"XXXXXXXX         XXX.....XXX                 XXXXXX....XXXXXXXXX",
"XXXXXXXX         XXX.....XXX                XXXXXX.....XXXXXXXXX",
"XXXXXXXX         XXX.....XXX               XXXXXX......XXXXXXXXX",
"XXXXXXXX        XXXXX...XXXXX             XXXXXX.......XXXXXXXXX",
"XXXXXXXX       XXXXXXXXXXXXXXX           XXXXXX........XXXXXXXXX",
"XXXXXXXX      XXXXXXXXXXXXXXXXX         XXXXXX.........XXXXXXXXX",
"XXXXXXXX     XXXXXXXXXXXXXXXXXXX       XXXXXX..........XXXXXXXXX",
"XXXXXXXX    XXXXXXX.......XXXXXXXXXXXXXXXXXX...........XXXXXXXXX",
"XXXXXXXX   XXXXXXX.........XXXXXXXXXXXXXXXX............XXXXXXXXX",
"XXXXXXXX  XXXXXXX...........XXXXXXXXXXXXXX.............XXXXXXXXX",
"XXXXXXXX XXXXXXX.............XXXXX...XXXX..............XXXXXXXXX",
"XXXXXXXXXXXXXXX...............XXXX....XXX..............XXXXXXXXX",
"XXXXXXXXXXXXXX................XXX.....XXX..............XXXXXXXXX",
"XXXXXXXXXXXXX.................XXXX....XXX..............XXXXXXXXX",
"XXXXXXXXXXXX..................XXXX...XXXX..............XXXXXXXXX",
"XXXXXXXXXXX....................XXXXXXXXX...............XXXXXXXXX",
"XXXXXXXXXX......................XXXXXXXX...............XXXXXXXXX",
"XXXXXXXXX........................XXXXX.................XXXXXXXXX",
"XXXXXXXX...............................................XXXXXXXXX",
"XXXXXXX................................................XXXXXXXXX",
"XXXXXX.................................................XXXXXXXXX",
"XXXXX..................................................XXXXXXXXX",
"XXXX...................................................XXXXXXXXX",
"XXX....................................................XXXXXXXXX",
"XX....XX...............................................XXXXXXXXX",
"X...XXXX..............................................XXXXXXXXXX",
".XXXXXXXX............................................XXXXXXXXXXX",
"XXXXXXXXXXX........................................XXXXXXXXXXXXX",
"XXXXXXXXXXXXXXXXXXXXXXXXXXXXXXXXXXXXXXXXXXXXXXXXXXXXXXXXXXXXXXXX",
"XXXXXXXXXXXXXXXXXXXXXXXXXXXXXXXXXXXXXXXXXXXXXXXXXXXXXXXXXXXXXXXX",
"XXXXXXXXXXXXXXXXXXXXXXXXXXXXXXXXXXXXXXXXXXXXXXXXXXXXXXXXXXXXXXXX",
"XXXXXXXXXXXXXXXXXXXXXXXXXXXXXXXXXXXXXXXXXXXXXXXXXXXXXXXXXXXXXXXX",
"XXXXXXXXXXXXXXXXXXXXXXXXXXXXXXXXXXXXXXXXXXXXXXXXXXXXXXXXXXXXXXXX",
"XXXXXXXXXXXXXXXXXXXXXXXXXXXXXXXXXXXXXXXXXXXXXXXXXXXXXXXXXXXXXXXX",
"XXXXXXXXXXXXXXXXXXXXXXXXXXXXXXXXXXXXXXXXXXXXXXXXXXXXXXXXXXXXXXXX",
"XXXXXXXXXXXXXXXXXXXXXXXXXXXXXXXXXXXXXXXXXXXXXXXXXXXXXXXXXXXXXXXX"
};
