/* XPM */
static char *f9ac633bd8524072f3c4440a587749e4[] = {
/* columns rows colors chars-per-pixel */
"16 16 3 1 ",
"  c #29303A",
". c #E87624",
"X c None",
/* pixels */
"XXXXXXXXXXXXXXXX",
"XXXXXXXXXXXXXXXX",
"XX            X ",
"XX             X",
"XX            XX",
"XX           XXX",
"XX   X      XXXX",
"XX  X.X    X..XX",
"XX  X.XX  X...XX",
"XX X...XXX....XX",
"XXX......X....XX",
"XX............XX",
"X.............XX",
".X............XX",
"XXXXXXXXXXXXXXXX",
"XXXXXXXXXXXXXXXX"
};
