/* XPM */
static char *_e0be63f9b2546cae7a736268b26a020[] = {
/* columns rows colors chars-per-pixel */
"128 128 3 1 ",
"  c #29303A",
". c #E87624",
"X c None",
/* pixels */
"XXXXXXXXXXXXXXXXXXXXXXXXXXXXXXXXXXXXXXXXXXXXXXXXXXXXXXXXXXXXXXXXXXXXXXXXXXXXXXXXXXXXXXXXXXXXXXXXXXXXXXXXXXXXXXXXXXXXXXXXXXXXXXXX",
"XXXXXXXXXXXXXXXXXXXXXXXXXXXXXXXXXXXXXXXXXXXXXXXXXXXXXXXXXXXXXXXXXXXXXXXXXXXXXXXXXXXXXXXXXXXXXXXXXXXXXXXXXXXXXXXXXXXXXXXXXXXXXXXX",
"XXXXXXXXXXXXXXXXXXXXXXXXXXXXXXXXXXXXXXXXXXXXXXXXXXXXXXXXXXXXXXXXXXXXXXXXXXXXXXXXXXXXXXXXXXXXXXXXXXXXXXXXXXXXXXXXXXXXXXXXXXXXXXXX",
"XXXXXXXXXXXXXXXXXXXXXXXXXXXXXXXXXXXXXXXXXXXXXXXXXXXXXXXXXXXXXXXXXXXXXXXXXXXXXXXXXXXXXXXXXXXXXXXXXXXXXXXXXXXXXXXXXXXXXXXXXXXXXXXX",
"XXXXXXXXXXXXXXXXXXXXXXXXXXXXXXXXXXXXXXXXXXXXXXXXXXXXXXXXXXXXXXXXXXXXXXXXXXXXXXXXXXXXXXXXXXXXXXXXXXXXXXXXXXXXXXXXXXXXXXXXXXXXXXXX",
"XXXXXXXXXXXXXXXXXXXXXXXXXXXXXXXXXXXXXXXXXXXXXXXXXXXXXXXXXXXXXXXXXXXXXXXXXXXXXXXXXXXXXXXXXXXXXXXXXXXXXXXXXXXXXXXXXXXXXXXXXXXXXXXX",
"XXXXXXXXXXXXXXXXXXXXXXXXXXXXXXXXXXXXXXXXXXXXXXXXXXXXXXXXXXXXXXXXXXXXXXXXXXXXXXXXXXXXXXXXXXXXXXXXXXXXXXXXXXXXXXXXXXXXXXXXXXXXXXXX",
"XXXXXXXXXXXXXXXXXXXXXXXXXXXXXXXXXXXXXXXXXXXXXXXXXXXXXXXXXXXXXXXXXXXXXXXXXXXXXXXXXXXXXXXXXXXXXXXXXXXXXXXXXXXXXXXXXXXXXXXXXXXXXXXX",
"XXXXXXXXXXXXXXXXXXXXXXXXXXXXXXXXXXXXXXXXXXXXXXXXXXXXXXXXXXXXXXXXXXXXXXXXXXXXXXXXXXXXXXXXXXXXXXXXXXXXXXXXXXXXXXXXXXXXXXXXXXXXXXXX",
"XXXXXXXXXXXXXXXXXXXXXXXXXXXXXXXXXXXXXXXXXXXXXXXXXXXXXXXXXXXXXXXXXXXXXXXXXXXXXXXXXXXXXXXXXXXXXXXXXXXXXXXXXXXXXXXXXXXXXXXXXXXXXXXX",
"XXXXXXXXXXXXXXXXXXXXXXXXXXXXXXXXXXXXXXXXXXXXXXXXXXXXXXXXXXXXXXXXXXXXXXXXXXXXXXXXXXXXXXXXXXXXXXXXXXXXXXXXXXXXXXXXXXXXXXXXXXXXXXXX",
"XXXXXXXXXXXXXXXXXXXXXXXXXXXXXXXXXXXXXXXXXXXXXXXXXXXXXXXXXXXXXXXXXXXXXXXXXXXXXXXXXXXXXXXXXXXXXXXXXXXXXXXXXXXXXXXXXXXXXXXXXXXXXXXX",
"XXXXXXXXXXXXXXXXXXXXXXXXXXXXXXXXXXXXXXXXXXXXXXXXXXXXXXXXXXXXXXXXXXXXXXXXXXXXXXXXXXXXXXXXXXXXXXXXXXXXXXXXXXXXXXXXXXXXXXXXXXXXXXXX",
"XXXXXXXXXXXXXXXXXXXXXXXXXXXXXXXXXXXXXXXXXXXXXXXXXXXXXXXXXXXXXXXXXXXXXXXXXXXXXXXXXXXXXXXXXXXXXXXXXXXXXXXXXXXXXXXXXXXXXXXXXXXXXXXX",
"XXXXXXXXXXXXXXXXXXXXXXXXXXXXXXXXXXXXXXXXXXXXXXXXXXXXXXXXXXXXXXXXXXXXXXXXXXXXXXXXXXXXXXXXXXXXXXXXXXXXXXXXXXXXXXXXXXXXXXXXXXXXXXXX",
"XXXXXXXXXXXXXXXXXXXXXXXXXXXXXXXXXXXXXXXXXXXXXXXXXXXXXXXXXXXXXXXXXXXXXXXXXXXXXXXXXXXXXXXXXXXXXXXXXXXXXXXXXXXXXXXXXXXXXXXXXXXXXXXX",
"XXXXXXXXXXXXXXXXXXXXXXXXXXXXXXXXXXXXXXXXXXXXXXXXXXXXXXXXXXXXXXXXXXXXXXXXXXXXXXXXXXXXXXXXXXXXXXXXXXXXXXXXXXXXXXXXXXXXXXXXXXXXXXXX",
"XXXXXXXXXXXXXXXXXXXXX                                                                                  XXXXXXXXXXXXXXXXXXXXXXXXX",
"XXXXXXXXXXXXXXXXXXX                                                                                       XXXXXXXXXXXXXXXXXXX  X",
"XXXXXXXXXXXXXXXXXX                                                                                         XXXXXXXXXXXXXXXX   XX",
"XXXXXXXXXXXXXXXXX                                                                                           XXXXXXXXXXXX     XXX",
"XXXXXXXXXXXXXXXX                                                                                            XXXXXXXXXX      XXXX",
"XXXXXXXXXXXXXXXX                                                                                             XXXXXXX       XXXXX",
"XXXXXXXXXXXXXXXX                                                                                             XXXX         XXXXXX",
"XXXXXXXXXXXXXXX                                                                                              XX          XXXXXXX",
"XXXXXXXXXXXXXXX                                                                                                         XXXXXXXX",
"XXXXXXXXXXXXXXX                                                                                                        XXXXXXXXX",
"XXXXXXXXXXXXXXX                                                                                                       XXXXXXXXXX",
"XXXXXXXXXXXXXXX                                                                                                      XXXXXXXXXXX",
"XXXXXXXXXXXXXXX                                                                                                     XXXXXXXXXXXX",
"XXXXXXXXXXXXXXX                                                                                                    XXXXXXXXXXXXX",
"XXXXXXXXXXXXXXX                                                                                                   XXXXXXXXXXXXXX",
"XXXXXXXXXXXXXXX                                                                                                  XXXXXXXXXXXXXXX",
"XXXXXXXXXXXXXXX                                                                                                 XXXXXXXXXXXXXXXX",
"XXXXXXXXXXXXXXX                                                                                                XXXXXXXXXXXXXXXXX",
"XXXXXXXXXXXXXXX                                                                                               XXXXXXXXXXXXXXXXXX",
"XXXXXXXXXXXXXXX                                                                                              XXXXXXXXXXXXXXXXXXX",
"XXXXXXXXXXXXXXX                                                                                             XXXXXXXXXXXXXXXXXXXX",
"XXXXXXXXXXXXXXX                                                                                            XXXXXXXXXXXXXXXXXXXXX",
"XXXXXXXXXXXXXXX                                                                                           XXXXXXXXXXXXXXXXXXXXXX",
"XXXXXXXXXXXXXXX                                                                                          XXXXXXXXXXXXXXXXXXXXXXX",
"XXXXXXXXXXXXXXX                                                                                         XXXXXXXXXXXXXXXXXXXXXXXX",
"XXXXXXXXXXXXXXX                                                                                        XXXXXXXXXXXXXXXXXXXXXXXXX",
"XXXXXXXXXXXXXXX                                                                                       XXXXXXXXXXXXXXXXXXXXXXXXXX",
"XXXXXXXXXXXXXXX                                                                                      XXXXXXXXXXXXXXXXXXXXXXXXXXX",
"XXXXXXXXXXXXXXX                                                                                     XXXXXXXXXXXXXXXXXXXXXXXXXXXX",
"XXXXXXXXXXXXXXX                                                                                    XXXXXXXXXXXXXXXXXXXXXXXXXXXXX",
"XXXXXXXXXXXXXXX                                                                                   XXXXXXXXXXXXXXXXXXXXXXXXXXXXXX",
"XXXXXXXXXXXXXXX                            XXXX                                                  XXXXXXXXXXXXXXXXXXXXXXXXXXXXXXX",
"XXXXXXXXXXXXXXX                         XXXXXXXXXX                                              XXXXXXXXXXXXXXXXXXXXXXXXXXXXXXXX",
"XXXXXXXXXXXXXXX                       XXXXXXXXXXXXXX                                           XXXXXXXXXXXXXXXXXXXXXXXXXXXXXXXXX",
"XXXXXXXXXXXXXXX                      XXXXXXXXXXXXXXXX                                         XXXXXXXXXXXXXX.XXXXXXXXXXXXXXXXXXX",
"XXXXXXXXXXXXXXX                     XXXXXXXXXXXXXXXXXX                                       XXXXXXXXXXXXXX..XXXXXXXXXXXXXXXXXXX",
"XXXXXXXXXXXXXXX                    XXXXXXXXXXXXXXXXXXXX                                     XXXXXXXXXXXXXX...XXXXXXXXXXXXXXXXXXX",
"XXXXXXXXXXXXXXX                    XXXXXXXXXXXXXXXXXXXX                                    XXXXXXXXXXXXXX....XXXXXXXXXXXXXXXXXXX",
"XXXXXXXXXXXXXXX                   XXXXXXXXX.....XXXXXXXX                                  XXXXXXXXXXXXXX.....XXXXXXXXXXXXXXXXXXX",
"XXXXXXXXXXXXXXX                   XXXXXXX........XXXXXXX                                 XXXXXXXXXXXXXX......XXXXXXXXXXXXXXXXXXX",
"XXXXXXXXXXXXXXX                   XXXXXXX........XXXXXXX                                XXXXXXXXXXXXXX.......XXXXXXXXXXXXXXXXXXX",
"XXXXXXXXXXXXXXX                   XXXXXX..........XXXXXX                               XXXXXXXXXXXXXX........XXXXXXXXXXXXXXXXXXX",
"XXXXXXXXXXXXXXX                   XXXXXX..........XXXXXX                              XXXXXXXXXXXXXX.........XXXXXXXXXXXXXXXXXXX",
"XXXXXXXXXXXXXXX                   XXXXXX..........XXXXXX                             XXXXXXXXXXXXXX..........XXXXXXXXXXXXXXXXXXX",
"XXXXXXXXXXXXXXX                   XXXXXXX.........XXXXXX                            XXXXXXXXXXXXXX...........XXXXXXXXXXXXXXXXXXX",
"XXXXXXXXXXXXXXX                  XXXXXXXX........XXXXXXXX                          XXXXXXXXXXXXXX............XXXXXXXXXXXXXXXXXXX",
"XXXXXXXXXXXXXXX                 XXXXXXXXXX......XXXXXXXXXX                        XXXXXXXXXXXXXX.............XXXXXXXXXXXXXXXXXXX",
"XXXXXXXXXXXXXXX                XXXXXXXXXXXXXXXXXXXXXXXXXXXX                      XXXXXXXXXXXXXX..............XXXXXXXXXXXXXXXXXXX",
"XXXXXXXXXXXXXXX               XXXXXXXXXXXXXXXXXXXXXXXXXXXXXX                    XXXXXXXXXXXXXX...............XXXXXXXXXXXXXXXXXXX",
"XXXXXXXXXXXXXXX              XXXXXXXXXXXXXXXXXXXXXXXXXXXXXXXX                  XXXXXXXXXXXXXX................XXXXXXXXXXXXXXXXXXX",
"XXXXXXXXXXXXXXX             XXXXXXXXXXXXXXXXXXXXXXXXXXXXXXXXXX                XXXXXXXXXXXXXX.................XXXXXXXXXXXXXXXXXXX",
"XXXXXXXXXXXXXXX            XXXXXXXXXXXXXXXXXXXXXXXXXXXXXXXXXXXX              XXXXXXXXXXXXXX..................XXXXXXXXXXXXXXXXXXX",
"XXXXXXXXXXXXXXX           XXXXXXXXXXXXXX.XXXXXXXX.XXXXXXXXXXXXXX            XXXXXXXXXXXXXX...................XXXXXXXXXXXXXXXXXXX",
"XXXXXXXXXXXXXXX          XXXXXXXXXXXXXX............XXXXXXXXXXXXXX  XXXXXXXXXXXXXXXXXXXXXX....................XXXXXXXXXXXXXXXXXXX",
"XXXXXXXXXXXXXXX         XXXXXXXXXXXXXX..............XXXXXXXXXXXXXXXXXXXXXXXXXXXXXXXXXXXX.....................XXXXXXXXXXXXXXXXXXX",
"XXXXXXXXXXXXXXX        XXXXXXXXXXXXXX................XXXXXXXXXXXXXXXXXXXXXXXXXXXXXXXXXX......................XXXXXXXXXXXXXXXXXXX",
"XXXXXXXXXXXXXXX       XXXXXXXXXXXXXX..................XXXXXXXXXXXXXXXXXXXXXXXXXXXXXXXX.......................XXXXXXXXXXXXXXXXXXX",
"XXXXXXXXXXXXXXX      XXXXXXXXXXXXXX....................XXXXXXXXXXXXXXXXXXXXXXXXXXXXXX........................XXXXXXXXXXXXXXXXXXX",
"XXXXXXXXXXXXXXX     XXXXXXXXXXXXXX......................XXXXXXXXXXXXXXXXXXXXXXXXXXXX.........................XXXXXXXXXXXXXXXXXXX",
"XXXXXXXXXXXXXXX    XXXXXXXXXXXXXX........................XXXXXXXXXXXX.....XXXXXXXXX..........................XXXXXXXXXXXXXXXXXXX",
"XXXXXXXXXXXXXXX   XXXXXXXXXXXXXX..........................XXXXXXXXXX.......XXXXXXX...........................XXXXXXXXXXXXXXXXXXX",
"XXXXXXXXXXXXXXX  XXXXXXXXXXXXXX............................XXXXXXXX.........XXXXXX...........................XXXXXXXXXXXXXXXXXXX",
"XXXXXXXXXXXXXXXXXXXXXXXXXXXXXX..............................XXXXXXX.........XXXXXXX..........................XXXXXXXXXXXXXXXXXXX",
"XXXXXXXXXXXXXXXXXXXXXXXXXXXXX...............................XXXXXXX.........XXXXXXX..........................XXXXXXXXXXXXXXXXXXX",
"XXXXXXXXXXXXXXXXXXXXXXXXXXXX................................XXXXXXX.........XXXXXXX..........................XXXXXXXXXXXXXXXXXXX",
"XXXXXXXXXXXXXXXXXXXXXXXXXXX.................................XXXXXXX.........XXXXXXX..........................XXXXXXXXXXXXXXXXXXX",
"XXXXXXXXXXXXXXXXXXXXXXXXXX..................................XXXXXXXX........XXXXXX...........................XXXXXXXXXXXXXXXXXXX",
"XXXXXXXXXXXXXXXXXXXXXXXXX....................................XXXXXXX.......XXXXXXX...........................XXXXXXXXXXXXXXXXXXX",
"XXXXXXXXXXXXXXXXXXXXXXXX.....................................XXXXXXXXX...XXXXXXXXX...........................XXXXXXXXXXXXXXXXXXX",
"XXXXXXXXXXXXXXXXXXXXXXX......................................XXXXXXXXXXXXXXXXXXXX............................XXXXXXXXXXXXXXXXXXX",
"XXXXXXXXXXXXXXXXXXXXXX........................................XXXXXXXXXXXXXXXXXXX............................XXXXXXXXXXXXXXXXXXX",
"XXXXXXXXXXXXXXXXXXXXX..........................................XXXXXXXXXXXXXXXXX.............................XXXXXXXXXXXXXXXXXXX",
"XXXXXXXXXXXXXXXXXXXX............................................XXXXXXXXXXXXXXX..............................XXXXXXXXXXXXXXXXXXX",
"XXXXXXXXXXXXXXXXXXX..............................................XXXXXXXXXXXX................................XXXXXXXXXXXXXXXXXXX",
"XXXXXXXXXXXXXXXXXX.................................................XXXXXXXX..................................XXXXXXXXXXXXXXXXXXX",
"XXXXXXXXXXXXXXXXX............................................................................................XXXXXXXXXXXXXXXXXXX",
"XXXXXXXXXXXXXXXX.............................................................................................XXXXXXXXXXXXXXXXXXX",
"XXXXXXXXXXXXXXX..............................................................................................XXXXXXXXXXXXXXXXXXX",
"XXXXXXXXXXXXXX...............................................................................................XXXXXXXXXXXXXXXXXXX",
"XXXXXXXXXXXXX................................................................................................XXXXXXXXXXXXXXXXXXX",
"XXXXXXXXXXXX.................................................................................................XXXXXXXXXXXXXXXXXXX",
"XXXXXXXXXXX..................................................................................................XXXXXXXXXXXXXXXXXXX",
"XXXXXXXXXX...................................................................................................XXXXXXXXXXXXXXXXXXX",
"XXXXXXXXX....................................................................................................XXXXXXXXXXXXXXXXXXX",
"XXXXXXXX.....................................................................................................XXXXXXXXXXXXXXXXXXX",
"XXXXXXX......................................................................................................XXXXXXXXXXXXXXXXXXX",
"XXXXXX........X..............................................................................................XXXXXXXXXXXXXXXXXXX",
"XXXXX.......XXXX.............................................................................................XXXXXXXXXXXXXXXXXXX",
"XXXX......XXXXXX.............................................................................................XXXXXXXXXXXXXXXXXXX",
"XXX.....XXXXXXXX............................................................................................XXXXXXXXXXXXXXXXXXXX",
"XX...XXXXXXXXXXXX...........................................................................................XXXXXXXXXXXXXXXXXXXX",
"X..XXXXXXXXXXXXXXX.........................................................................................XXXXXXXXXXXXXXXXXXXXX",
".XXXXXXXXXXXXXXXXXX.......................................................................................XXXXXXXXXXXXXXXXXXXXXX",
"XXXXXXXXXXXXXXXXXXXXX..................................................................................XXXXXXXXXXXXXXXXXXXXXXXXX",
"XXXXXXXXXXXXXXXXXXXXXXXXXXXXXXXXXXXXXXXXXXXXXXXXXXXXXXXXXXXXXXXXXXXXXXXXXXXXXXXXXXXXXXXXXXXXXXXXXXXXXXXXXXXXXXXXXXXXXXXXXXXXXXXX",
"XXXXXXXXXXXXXXXXXXXXXXXXXXXXXXXXXXXXXXXXXXXXXXXXXXXXXXXXXXXXXXXXXXXXXXXXXXXXXXXXXXXXXXXXXXXXXXXXXXXXXXXXXXXXXXXXXXXXXXXXXXXXXXXX",
"XXXXXXXXXXXXXXXXXXXXXXXXXXXXXXXXXXXXXXXXXXXXXXXXXXXXXXXXXXXXXXXXXXXXXXXXXXXXXXXXXXXXXXXXXXXXXXXXXXXXXXXXXXXXXXXXXXXXXXXXXXXXXXXX",
"XXXXXXXXXXXXXXXXXXXXXXXXXXXXXXXXXXXXXXXXXXXXXXXXXXXXXXXXXXXXXXXXXXXXXXXXXXXXXXXXXXXXXXXXXXXXXXXXXXXXXXXXXXXXXXXXXXXXXXXXXXXXXXXX",
"XXXXXXXXXXXXXXXXXXXXXXXXXXXXXXXXXXXXXXXXXXXXXXXXXXXXXXXXXXXXXXXXXXXXXXXXXXXXXXXXXXXXXXXXXXXXXXXXXXXXXXXXXXXXXXXXXXXXXXXXXXXXXXXX",
"XXXXXXXXXXXXXXXXXXXXXXXXXXXXXXXXXXXXXXXXXXXXXXXXXXXXXXXXXXXXXXXXXXXXXXXXXXXXXXXXXXXXXXXXXXXXXXXXXXXXXXXXXXXXXXXXXXXXXXXXXXXXXXXX",
"XXXXXXXXXXXXXXXXXXXXXXXXXXXXXXXXXXXXXXXXXXXXXXXXXXXXXXXXXXXXXXXXXXXXXXXXXXXXXXXXXXXXXXXXXXXXXXXXXXXXXXXXXXXXXXXXXXXXXXXXXXXXXXXX",
"XXXXXXXXXXXXXXXXXXXXXXXXXXXXXXXXXXXXXXXXXXXXXXXXXXXXXXXXXXXXXXXXXXXXXXXXXXXXXXXXXXXXXXXXXXXXXXXXXXXXXXXXXXXXXXXXXXXXXXXXXXXXXXXX",
"XXXXXXXXXXXXXXXXXXXXXXXXXXXXXXXXXXXXXXXXXXXXXXXXXXXXXXXXXXXXXXXXXXXXXXXXXXXXXXXXXXXXXXXXXXXXXXXXXXXXXXXXXXXXXXXXXXXXXXXXXXXXXXXX",
"XXXXXXXXXXXXXXXXXXXXXXXXXXXXXXXXXXXXXXXXXXXXXXXXXXXXXXXXXXXXXXXXXXXXXXXXXXXXXXXXXXXXXXXXXXXXXXXXXXXXXXXXXXXXXXXXXXXXXXXXXXXXXXXX",
"XXXXXXXXXXXXXXXXXXXXXXXXXXXXXXXXXXXXXXXXXXXXXXXXXXXXXXXXXXXXXXXXXXXXXXXXXXXXXXXXXXXXXXXXXXXXXXXXXXXXXXXXXXXXXXXXXXXXXXXXXXXXXXXX",
"XXXXXXXXXXXXXXXXXXXXXXXXXXXXXXXXXXXXXXXXXXXXXXXXXXXXXXXXXXXXXXXXXXXXXXXXXXXXXXXXXXXXXXXXXXXXXXXXXXXXXXXXXXXXXXXXXXXXXXXXXXXXXXXX",
"XXXXXXXXXXXXXXXXXXXXXXXXXXXXXXXXXXXXXXXXXXXXXXXXXXXXXXXXXXXXXXXXXXXXXXXXXXXXXXXXXXXXXXXXXXXXXXXXXXXXXXXXXXXXXXXXXXXXXXXXXXXXXXXX",
"XXXXXXXXXXXXXXXXXXXXXXXXXXXXXXXXXXXXXXXXXXXXXXXXXXXXXXXXXXXXXXXXXXXXXXXXXXXXXXXXXXXXXXXXXXXXXXXXXXXXXXXXXXXXXXXXXXXXXXXXXXXXXXXX",
"XXXXXXXXXXXXXXXXXXXXXXXXXXXXXXXXXXXXXXXXXXXXXXXXXXXXXXXXXXXXXXXXXXXXXXXXXXXXXXXXXXXXXXXXXXXXXXXXXXXXXXXXXXXXXXXXXXXXXXXXXXXXXXXX",
"XXXXXXXXXXXXXXXXXXXXXXXXXXXXXXXXXXXXXXXXXXXXXXXXXXXXXXXXXXXXXXXXXXXXXXXXXXXXXXXXXXXXXXXXXXXXXXXXXXXXXXXXXXXXXXXXXXXXXXXXXXXXXXXX",
"XXXXXXXXXXXXXXXXXXXXXXXXXXXXXXXXXXXXXXXXXXXXXXXXXXXXXXXXXXXXXXXXXXXXXXXXXXXXXXXXXXXXXXXXXXXXXXXXXXXXXXXXXXXXXXXXXXXXXXXXXXXXXXXX"
};
